<?xml version="1.0" encoding="utf-8"?>
<!-- Generator: Adobe Illustrator 18.1.1, SVG Export Plug-In . SVG Version: 6.00 Build 0)  -->
<svg version="1.1" id="Слой_1" xmlns="http://www.w3.org/2000/svg" xmlns:xlink="http://www.w3.org/1999/xlink" x="0px" y="0px"
	 width="120px" height="27px" viewBox="0 0 120 27" enable-background="new 0 0 120 27" xml:space="preserve">
<g>
	<g>
		<g>
			<g>
				<path fill="#BEEDD3" d="M11.386,22.666C5.107,22.666,0,17.581,0,11.331C0,5.083,5.107,0,11.386,0
					c6.28,0,11.389,5.083,11.389,11.331C22.774,17.581,17.666,22.666,11.386,22.666z M11.386,1.99C6.21,1.99,2,6.181,2,11.331
					c0,5.153,4.21,9.345,9.386,9.345c5.177,0,9.389-4.192,9.389-9.345C20.774,6.181,16.563,1.99,11.386,1.99z"/>
			</g>
			<g>
				<path fill="#BEEDD3" d="M29,27c-0.228,0-0.458-0.077-0.646-0.235l-9.421-7.932c-0.421-0.355-0.474-0.983-0.118-1.403
					c0.357-0.42,0.988-0.471,1.41-0.117l9.421,7.932c0.421,0.355,0.474,0.983,0.118,1.403C29.565,26.88,29.284,27,29,27z"/>
			</g>
		</g>
		<g>
			<g>
				<path fill="#FFFFFF" d="M41.386,22.666C35.107,22.666,30,17.581,30,11.331C30,5.083,35.107,0,41.386,0
					c6.28,0,11.389,5.083,11.389,11.331C52.774,17.581,47.666,22.666,41.386,22.666z M41.386,1.99C36.21,1.99,32,6.181,32,11.331
					c0,5.153,4.21,9.345,9.386,9.345c5.177,0,9.389-4.192,9.389-9.345C50.774,6.181,46.563,1.99,41.386,1.99z"/>
			</g>
			<g>
				<path fill="#FFFFFF" d="M59,27c-0.228,0-0.458-0.077-0.646-0.235l-9.421-7.932c-0.421-0.355-0.474-0.983-0.118-1.403
					c0.357-0.42,0.988-0.471,1.41-0.117l9.421,7.932c0.421,0.355,0.474,0.983,0.118,1.403C59.565,26.88,59.284,27,59,27z"/>
			</g>
		</g>
	</g>
	<g>
		<g>
			<g>
				<g>
					<path fill="#2A323A" d="M71.386,22.666C65.107,22.666,60,17.581,60,11.331C60,5.083,65.107,0,71.386,0
						c6.28,0,11.389,5.083,11.389,11.331C82.774,17.581,77.666,22.666,71.386,22.666z M71.386,1.99C66.21,1.99,62,6.181,62,11.331
						c0,5.153,4.21,9.345,9.386,9.345c5.177,0,9.389-4.192,9.389-9.345C80.774,6.181,76.563,1.99,71.386,1.99z"/>
				</g>
				<g>
					<path fill="#2A323A" d="M89,27c-0.228,0-0.458-0.077-0.646-0.235l-9.421-7.932c-0.421-0.355-0.474-0.983-0.118-1.403
						c0.357-0.42,0.988-0.471,1.41-0.117l9.421,7.932c0.421,0.355,0.474,0.983,0.118,1.403C89.565,26.88,89.284,27,89,27z"/>
				</g>
			</g>
		</g>
		<g>
			<g>
				<g>
					<path fill="#4BB4AC" d="M101.386,22.666C95.107,22.666,90,17.581,90,11.331C90,5.083,95.107,0,101.386,0
						c6.28,0,11.389,5.083,11.389,11.331C112.774,17.581,107.666,22.666,101.386,22.666z M101.386,1.99
						C96.21,1.99,92,6.181,92,11.331c0,5.153,4.21,9.345,9.386,9.345c5.177,0,9.389-4.192,9.389-9.345
						C110.774,6.181,106.563,1.99,101.386,1.99z"/>
				</g>
				<g>
					<path fill="#4BB4AC" d="M119,27c-0.228,0-0.458-0.077-0.646-0.235l-9.421-7.932c-0.421-0.355-0.474-0.983-0.118-1.403
						c0.357-0.42,0.988-0.471,1.41-0.117l9.421,7.932c0.421,0.355,0.474,0.983,0.118,1.403C119.565,26.88,119.284,27,119,27z"/>
				</g>
			</g>
		</g>
	</g>
</g>
</svg>
